<svg xmlns="http://www.w3.org/2000/svg" width="92" height="92" viewBox="0 0 92 92"><path fill-rule="evenodd" clip-rule="evenodd" fill="#D7BE78" d="M46 49.5c-1.1 0-2 .9-2 2s.9 2 2 2 2-.9 2-2-.9-2-2-2zm0 6a4 4 0 1 1 0-8 4 4 0 0 1 0 8zm11-10c0-1.1-.9-2-2-2H37c-1.1 0-2 .9-2 2v12c0 1.1.9 2 2 2h18c1.1 0 2-.9 2-2v-12zm-1 16H36c-1.66 0-3-1.34-3-3v-14c0-1.66 1.34-3 3-3h1v-3c0-4.97 4.04-9 9.03-9 4.64 0 8.46 3.5 8.96 8h-2.02c-.49-3.39-3.41-6-6.94-6-3.88 0-7.02 3.13-7.02 7v3H56c1.66 0 3 1.34 3 3v14c0 1.66-1.34 3-3 3z"/><path fill="#D7BE78" d="M46 92C20.636 92 0 71.364 0 46S20.636 0 46 0s46 20.636 46 46-20.636 46-46 46zm0-90C21.738 2 2 21.738 2 46c0 24.26 19.738 44 44 44s44-19.738 44-44S70.262 2 46 2z"/></svg>