<svg xmlns="http://www.w3.org/2000/svg" width="19.801" height="18" viewBox="0 0 19.801 18"><path fill="#1B1B1B" d="M2.13 15.59c2.21.17 3.4.39 4.02.82.49.33.41.46 5.61.46 1.59 0 4.69-.06 4.93-1.05.102-.392-.36-.78-.36-.792-.13-.28.01-.61.32-.73 0 0 1.23-.41 1.26-1.04.02-.4-.278-.64-.288-.65a.536.536 0 0 1 .158-.77c0-.01.8-.45.78-1.05-.01-.48-.7-.81-.72-.82a.616.616 0 0 1-.31-.38.557.557 0 0 1 .12-.458s.31-.45.3-.88c-.02-.91-1.1-.94-1.33-.94l-5.56.01c-.22 0-.41-.09-.52-.25a.528.528 0 0 1-.06-.53c.6-1.58.938-4.07.378-4.91-.16-.25-.2-.5-.82-.5-.08 0-.29.06-.5.52-2.07 4.5-5.148 7.1-7.68 7.34-.208.45-.618 1.39-.618 3.09 0 1.73.6 3.08.89 3.51zM11.76 18c-5.61 0-5.66-.21-6.35-.69-.37-.25-1.07-.43-3.61-.58a.698.698 0 0 1-.48-.2C1.27 16.47 0 14.78 0 12.08 0 9.41.91 8.2.95 8.14a.64.64 0 0 1 .52-.26c2.09 0 4.98-2.43 6.93-6.67C8.74.48 8.81 0 10.04 0c.7 0 1.49.46 1.88 1.05.8 1.2.39 3.78.02 5.16 1.27-.01 3.58-.03 4.682-.03 1.52 0 2.53.83 2.568 2.04.01.4-.05.92-.18 1.18.34.302.77.77.79 1.36.02.76-.53 1.35-.88 1.68.08.22.24.52.23.87-.04.87-.78 1.43-1.24 1.72.04.24.07.69-.01 1.03-.33 1.38-2.56 1.94-6.14 1.94z"/></svg>