<svg viewBox="0 0 23 24" style="background-color:#fff" xmlns="http://www.w3.org/2000/svg" width="23" height="24"><path d="M20.682 15.322l-.17.058a9.75 9.75 0 0 1-.348.883l.08.162c.38.478.588 1.074.588 1.704a2.7 2.7 0 0 1-.75 1.882l-.902.943a2.475 2.475 0 0 1-3.438.167l-.158-.082a9.295 9.295 0 0 1-.842.363l-.06.184C14.56 22.937 13.467 24 12.14 24h-1.28c-1.326 0-2.42-1.06-2.543-2.412l-.06-.184a9.3 9.3 0 0 1-.84-.36l-.162.084a2.474 2.474 0 0 1-3.435-.17l-.903-.944a2.708 2.708 0 0 1-.75-1.885c0-.63.207-1.225.586-1.7l.08-.17a10.204 10.204 0 0 1-.345-.88l-.175-.06C1.017 15.193 0 14.05 0 12.667v-1.334C0 9.95 1.017 8.807 2.313 8.678l.174-.06c.103-.3.22-.593.347-.878l-.08-.17a2.717 2.717 0 0 1-.586-1.698c0-.713.266-1.383.75-1.886l.903-.943a2.487 2.487 0 0 1 1.81-.78c.6 0 1.17.215 1.627.61l.163.084a9.57 9.57 0 0 1 .843-.363l.054-.174C8.437 1.065 9.53 0 10.86 0h1.28c1.33 0 2.424 1.064 2.544 2.418l.056.177c.288.107.57.23.845.364l.156-.085a2.475 2.475 0 0 1 3.44.166l.905.944c.483.503.75 1.173.75 1.886 0 .63-.208 1.226-.59 1.704l-.08.163c.13.287.247.582.35.882l.168.056c1.3.125 2.32 1.27 2.32 2.655v1.335c0 1.386-1.02 2.53-2.318 2.655zm.883-3.978c0-.725-.563-1.313-1.258-1.313l-.935-.32a8.7 8.7 0 0 0-.753-1.9l.44-.913a1.354 1.354 0 0 0 0-1.858l-.89-.93c-.246-.256-.47-.513-.8-.513-.326 0-.733.257-.98.513l-.874.462c-.57-.337-1.18-.6-1.824-.787l-.307-.976c0-.727-.563-1.315-1.258-1.315h-1.26c-.694 0-1.257.588-1.257 1.313l-.34.847a8.03 8.03 0 0 0-1.845.794l-.896-.466c-.25-.26-.49-.26-.815-.26a1.23 1.23 0 0 0-.89.383l-.89.927a1.354 1.354 0 0 0 0 1.858l.44.92A8.658 8.658 0 0 0 3.63 9.7l-.937.33c-.695 0-1.258.59-1.258 1.313v1.313c0 .725.563 1.312 1.258 1.312l.938.327c.18.666.43 1.3.75 1.888l-.44.922a1.353 1.353 0 0 0 0 1.856l.89.93a1.222 1.222 0 0 0 1.78 0l.88-.456c.566.332 1.17.593 1.81.78l.315.978c0 .727.563 1.314 1.258 1.314h1.26c.694 0 1.257-.587 1.257-1.312l.314-.978a7.915 7.915 0 0 0 1.814-.784l.877.463c.246.258.568.386.89.386.322 0 .643-.13.89-.385l.89-.927a1.353 1.353 0 0 0 0-1.857l-.446-.912a8.67 8.67 0 0 0 .752-1.903l.937-.32c.694 0 1.257-.588 1.257-1.314v-1.31zM11.5 15.75c-1.985 0-3.594-1.68-3.594-3.75 0-2.07 1.61-3.75 3.594-3.75 1.985 0 3.594 1.68 3.594 3.75 0 2.07-1.61 3.75-3.594 3.75zm0-6c-1.19 0-2.156 1.008-2.156 2.25 0 1.243.965 2.25 2.156 2.25 1.19 0 2.156-1.007 2.156-2.25 0-1.242-.965-2.25-2.156-2.25z" fill="#d3be7b"/></svg>