<svg xmlns="http://www.w3.org/2000/svg" width="47.982" height="53.505" viewBox="0 0 47.982 53.505"><path d="M23.99 27.87c-7.684 0-13.935-6.252-13.935-13.936S16.307 0 23.99 0c7.685 0 13.936 6.25 13.936 13.935S31.676 27.87 23.99 27.87zm0-25.37c-6.305 0-11.435 5.13-11.435 11.435S17.685 25.37 23.99 25.37s11.436-5.13 11.436-11.435S30.296 2.5 23.99 2.5zm21.545 51.005C43.425 43.36 34.365 36 23.99 36S4.557 43.36 2.448 53.504L0 52.996C2.348 41.7 12.438 33.5 23.99 33.5c11.554 0 21.644 8.2 23.992 19.495l-2.447.51z"/></svg>